<svg width="100" height="100" viewBox="0 0 100 100" fill="none" xmlns="http://www.w3.org/2000/svg">
<rect width="100" height="100" fill="#D9D9D9"/>
<path d="M48.3093 37.696C50.8053 37.696 52.7853 38.452 54.2493 39.964C55.7373 41.476 56.4813 43.576 56.4813 46.264V58H50.3613V47.092C50.3613 45.796 50.0133 44.8 49.3173 44.104C48.6453 43.384 47.7093 43.024 46.5093 43.024C45.3093 43.024 44.3613 43.384 43.6653 44.104C42.9933 44.8 42.6573 45.796 42.6573 47.092V58H36.5373V47.092C36.5373 45.796 36.1893 44.8 35.4933 44.104C34.8213 43.384 33.8853 43.024 32.6853 43.024C31.4853 43.024 30.5373 43.384 29.8413 44.104C29.1693 44.8 28.8333 45.796 28.8333 47.092V58H22.6773V37.912H28.8333V40.432C29.4573 39.592 30.2733 38.932 31.2813 38.452C32.2893 37.948 33.4293 37.696 34.7013 37.696C36.2133 37.696 37.5573 38.02 38.7333 38.668C39.9333 39.316 40.8693 40.24 41.5413 41.44C42.2373 40.336 43.1853 39.436 44.3853 38.74C45.5853 38.044 46.8933 37.696 48.3093 37.696Z" fill="#333333"/>
<path d="M74.6155 52.78V58H71.4835C69.2515 58 67.5115 57.46 66.2635 56.38C65.0155 55.276 64.3915 53.488 64.3915 51.016V43.024H61.9435V37.912H64.3915V33.016H70.5475V37.912H74.5795V43.024H70.5475V51.088C70.5475 51.688 70.6915 52.12 70.9795 52.384C71.2675 52.648 71.7475 52.78 72.4195 52.78H74.6155Z" fill="#333333"/>
<rect x="20" y="62" width="60" height="6" fill="#333333"/>
</svg>
