<svg width="100" height="100" viewBox="0 0 100 100" fill="none" xmlns="http://www.w3.org/2000/svg">
<rect width="100" height="100" fill="#D9D9D9"/>
<path d="M50.7352 31.8C54.2018 31.8 56.9518 32.85 58.9852 34.95C61.0518 37.05 62.0852 39.9667 62.0852 43.7V60H53.5852V44.85C53.5852 43.05 53.1018 41.6667 52.1352 40.7C51.2018 39.7 49.9018 39.2 48.2352 39.2C46.5685 39.2 45.2518 39.7 44.2852 40.7C43.3518 41.6667 42.8852 43.05 42.8852 44.85V60H34.3852V44.85C34.3852 43.05 33.9018 41.6667 32.9352 40.7C32.0018 39.7 30.7018 39.2 29.0352 39.2C27.3685 39.2 26.0518 39.7 25.0852 40.7C24.1518 41.6667 23.6852 43.05 23.6852 44.85V60H15.1352V32.1H23.6852V35.6C24.5518 34.4333 25.6852 33.5167 27.0852 32.85C28.4852 32.15 30.0685 31.8 31.8352 31.8C33.9352 31.8 35.8018 32.25 37.4352 33.15C39.1018 34.05 40.4018 35.3333 41.3352 37C42.3018 35.4667 43.6185 34.2167 45.2852 33.25C46.9518 32.2833 48.7685 31.8 50.7352 31.8Z" fill="#333333"/>
<path d="M85.9938 52.75V60H81.6438C78.5438 60 76.1271 59.25 74.3938 57.75C72.6604 56.2167 71.7938 53.7333 71.7938 50.3V39.2H68.3938V32.1H71.7938V25.3H80.3438V32.1H85.9438V39.2H80.3438V50.4C80.3438 51.2333 80.5438 51.8333 80.9438 52.2C81.3438 52.5667 82.0104 52.75 82.9438 52.75H85.9938Z" fill="#333333"/>
<rect x="12" y="65" width="76" height="9" fill="#333333"/>
</svg>
